<svg xmlns="http://www.w3.org/2000/svg" width="256" height="256"><path fill-opacity=".016" d="M0 128.004v128.004l128.25-.254 128.25-.254.254-127.75L257.008 0H0v128.004m.485.496c0 70.4.119 99.053.265 63.672.146-35.38.146-92.98 0-128C.604 29.153.485 58.1.485 128.5" fill="#d10a0a" fill-rule="evenodd"/><path fill-opacity=".295" d="M44.116 2.044C24.937 7.067 9.045 22.275 2.363 42 .607 47.185.5 52.106.5 128v80.5l2.357 6.826C8.971 233.034 23.703 247.454 42 253.64c5.181 1.752 10.165 1.86 86 1.86 75.894 0 80.815-.107 86-1.863 19.616-6.645 35.953-23.811 40.104-42.137.623-2.75 1.529-5.781 2.014-6.736 1.269-2.5 1.153-155.049-.118-154.264-.561.347-1-.437-1-1.784 0-7.86-7.925-22.73-16.747-31.422-7.807-7.693-16.533-12.68-26.764-15.297C204.01.084 200.47.002 127.59.055 55.681.107 51.094.216 44.116 2.044M.476 128c0 42.625.123 60.063.274 38.75.15-21.312.15-56.187 0-77.5C.599 67.938.476 85.375.476 128" fill="#d10a0a" fill-rule="evenodd"/><path fill-opacity=".746" d="M48.405 1.467C29.635 5.606 14.743 17.003 6.994 33.161-.202 48.163-.122 46.996.233 131.384.525 200.866.686 206.912 2.371 212c7.573 22.863 24.977 38.559 47.13 42.505 11.625 2.071 145.279 2.088 156.884.02 23.23-4.14 41.455-21.031 47.157-43.706.874-3.475 2.01-7.701 2.524-9.39 1.312-4.314 1.248-148.741-.066-147.929-.56.346-1-.429-1-1.759 0-3.601-2.855-12.474-6.353-19.741-4.214-8.757-15.818-20.343-24.676-24.638C209.041.123 214.822.558 130.5.329 69.949.165 53.261.396 48.405 1.467M.475 127.5c0 40.7.124 57.204.275 36.676.151-20.528.151-53.828 0-74C.598 70.004.475 86.8.475 127.5" fill="#d10a0a" fill-rule="evenodd"/><path fill-opacity=".132" d="M53.237 1.145c-7.926 1.137-21.829 6.189-21.462 7.798.151.663-.177.926-.73.585-1.461-.903-5.223 1.375-4.418 2.677.411.665.224.821-.471.391-1.587-.98-12.189 9.155-11.487 10.983.297.775.896 1.19 1.331.921.435-.269 1.046.179 1.359.994.315.819.062 1.376-.565 1.244-.637-.134-1.185 1.137-1.251 2.899-.082 2.179.276 2.986 1.17 2.643 1.648-.633 1.675-2.271.037-2.31-.738-.018-.572-.426.405-.997 1.96-1.144 6.928-.917 6.187.283-.703 1.138 1.669 3.855 2.771 3.174 1.341-.829 1.062-2.41-.363-2.063-.687.168-.912.116-.5-.114.413-.231.786-1.17.829-2.086.045-.95.511-.483 1.083 1.083.553 1.512 1.465 2.75 2.028 2.75s.77-.661.461-1.468c-.31-.807-.18-1.705.288-1.994 1.089-.673 2.158 2.046 1.489 3.789-.496 1.293-5.422 1.509-9.928.436-1.1-.262-1.437-.283-.75-.046.688.236 1.286 1.184 1.329 2.106.043.922.284 1.18.535.572.668-1.619 5.207-.459 5.717 1.461.382 1.435.452 1.422.553-.106.139-2.092 2.116-2.381 2.116-.309 0 .793.449 1.718.997 2.057.659.408.668-.25.025-1.941-.781-2.054-.671-2.557.562-2.557.844 0 1.275.419.959.931-.317.512-.111 1.218.457 1.569.568.351.777 1.052.464 1.558-.312.505.13.651.984.324.975-.375 1.552-.042 1.552.896 0 .821 1.062 2.188 2.36 3.038 2.225 1.458 2.354 1.427 2.25-.552-.06-1.154-.735-2.306-1.499-2.561-.843-.281-1.115-.018-.691.667.384.622.202 1.13-.405 1.13-.606 0-1.03-.562-.94-1.25.35-2.697-.139-3.663-1.575-3.112-.825.317-1.5.118-1.5-.443 0-1.377 3.292-.818 3.779.642.213.64 1.025 1.163 1.804 1.163.78 0 1.417.45 1.417 1s1.013 1.032 2.25 1.07c1.624.051 1.832.26.75.75-2.141.97-2.066 2.383.246 4.68l2.013 2-1.129-2.184C44.74 42.629 44.716 42 46 42c.55 0 1 .627 1 1.393 0 1.294 2.662 3.087 4.154 2.798.36-.07 1.26.612 2 1.514 1.189 1.451 1.084 1.574-.904 1.062-2.98-.768-2.866.44.175 1.85 2.016.935 2.316.871 1.833-.386-.383-.998-.103-1.338.833-1.01.775.272 1.347 1.228 1.272 2.126-.075.897.235 1.401.69 1.12.455-.281 1.403.106 2.108.86.704.754 2.157 1.141 3.228.861 1.499-.392 1.801-.127 1.311 1.151-.416 1.083-.126 1.661.831 1.661.808 0 1.501.788 1.539 1.75.06 1.486.192 1.448.875-.25.883-2.194.392-3.826-.909-3.022-.455.281-1.084-.162-1.4-.984-.315-.822-1.6-1.501-2.855-1.509-1.631-.011-1.901-.257-.947-.861 1.067-.677 1.007-.971-.302-1.473-.956-.367-1.382-.217-1.025.36.336.544.183.989-.341.989s-1.23-.725-1.57-1.611c-.506-1.318-.139-1.491 2.013-.951 1.448.363 3.285 1.314 4.083 2.111 1.777 1.778 3.696 1.92 2.707.201-.411-.714-.335-.898.178-.429.494.451.903 1.537.91 2.413.007.877.647 1.806 1.422 2.066.916.307 1.214-.037.851-.983-.468-1.221-.009-1.284 2.849-.389 1.874.587 2.954 1.218 2.399 1.403-.554.184-1.008 1.246-1.008 2.359 0 1.213.503 1.831 1.255 1.542.691-.265 1.833.137 2.54.893.836.896.899 1.375.179 1.375C75.679 62 73 59.858 73 58.024c0-2.174-1.571-3.528-2.447-2.109-.322.521-.101 1.246.491 1.612.692.428.43 1.142-.734 2.002-1.493 1.102-1.58 1.567-.501 2.654 1.082 1.088 1.194 1.013.643-.433-.457-1.2-.179-1.75.882-1.75 2.036 0 3.024 1.671 1.422 2.405-.691.317-.243.325.994.018 1.614-.4 2.25-.115 2.25 1.01 0 .862.513 1.567 1.14 1.567.627 0 1.692.756 2.368 1.68 1.129 1.544 1.321 1.508 2.365-.443.981-1.833.885-2.076-.703-1.77-1.012.195-2.477-.048-3.255-.541-1.078-.682-.879-.899.835-.911C79.987 63.007 81 62.55 81 62c0-.55.812-.212 1.805.75.993.962 1.389 2.035.88 2.383-.508.348.735 1.181 2.764 1.85 2.594.856 3.519 1.657 3.12 2.699-.313.815-.569 2.106-.569 2.868 0 .822-.611 1.153-1.5.812-.825-.317-1.5-1.004-1.5-1.528s.403-.703.895-.399c.493.305 1.16-.136 1.484-.979 1.307-3.406-5.98-3.589-8.015-.201-.461.768-.07.695 1.02-.191 1.537-1.247 1.887-1.247 2.677 0 .5.79.915 1.999.924 2.686.008.688.69 1.25 1.515 1.25s1.507.563 1.515 1.25c.012.92.243.892.875-.107.6-.946 1.067-1.021 1.544-.25.376.609.437 1.506.136 1.994-.302.488.234.825 1.191.75 1.087-.086 1.687.519 1.6 1.613-.184 2.319.323 2.208 1.704-.371.651-1.217.706-1.855.128-1.498-.593.366-.804-.154-.513-1.267.272-1.038.029-2.176-.541-2.528-.623-.385-.877.178-.639 1.414.233 1.212-.02 1.797-.619 1.427-.558-.345-.766-.875-.463-1.178.303-.303-.123-1.046-.946-1.65-1.217-.893-.927-1.139 1.551-1.312 1.746-.121 2.795.199 2.454.75-.327.53.219.999 1.214 1.042 1.049.046 1.284.291.559.583-1.79.723-1.544 2.338.357 2.338 1.042 0 1.397.546 1.011 1.552-.327.854.131 2.662 1.02 4.018 1.258 1.92 1.916 2.215 2.977 1.334.75-.622 1.073-1.599.719-2.172-.359-.581-.163-.745.442-.37.597.369 1.374.204 1.726-.365.681-1.102 7.296-.614 15.989 1.179 6.825 1.408 8.486 1.644 12.259 1.741 1.787.046 3.25.555 3.25 1.131 0 .577-3.151 4.25-7.003 8.164-3.852 3.913-6.795 7.323-6.54 7.578.255.255-.154 1.658-.909 3.118-1.503 2.906-.5 6.092 1.918 6.092.752 0 1.594.562 1.872 1.25.388.961.522.948.583-.059.043-.72.53-1.03 1.082-.689.661.408.668 1.245.021 2.454-.715 1.335-.579 2.168.497 3.061.813.676 1.479.852 1.479.393 0-.459 2.188 1.32 4.861 3.953 2.674 2.634 5.486 4.701 6.25 4.594 3.239-.453 4.114.075 3.57 2.154-.396 1.514-.015 2.25 1.348 2.607 1.673.437 1.724.672.426 1.97-.81.81-1.188 1.935-.839 2.499.403.652.947.532 1.494-.33.664-1.048.863-.945.875.449.018 2.187 5.96 7.846 7.341 6.993.541-.335.699-.149.352.413-.801 1.297 2.702 4.549 3.813 3.54.457-.414.506-.189.11.498-.395.688-.305 1.25.201 1.25.505 0 2.445-2.812 4.309-6.25 3.313-6.11 3.39-6.525 3.451-18.5.034-6.738-.283-12.25-.705-12.25-.421 0-1.082-1.687-1.468-3.75-2.629-14.053-16.55-33.361-30.944-42.918-3.011-1.999-5.321-3.789-5.133-3.977.653-.654 12.822 4.556 17.989 7.701 19.081 11.616 30.941 27.234 36.787 48.444 4.012 14.557 2.184 31.535-4.653 43.201l-2.66 4.539 10.075 10.13c8.56 8.607 10.108 10.656 10.3 13.63.567 8.825-9.874 14.158-16.379 8.366-2.052-1.827-6.771-3.02-6.771-1.712 0 .292.9 1.675 2 3.073 1.1 1.399 2 2.122 2 1.608 0-.514-.489-1.424-1.087-2.022-.783-.783-.764-1.287.066-1.8 1.613-.997 2.077-.277 2.614 4.055.298 2.401.002 4.112-.812 4.698-.943.679-.851.786.347.406.896-.283 2.133-.011 2.75.606.829.829 1.122.809 1.122-.078 0-.66.787-1.186 1.75-1.168 1.649.03 1.647.11-.037 1.387-1.99 1.51-1.924 3.515.169 5.161 1.149.903 1.107 1.087-.25 1.087-.897 0-1.688-.375-1.757-.834A24.185 24.185 0 0 0 182.5 208a37.4 37.4 0 0 1-.39-1.75c-.077-.412-.543-.115-1.035.662-.583.922-.385 1.921.573 2.879.807.807 1.246 2.044.975 2.749-.372.97.208 1.082 2.377.46 2.227-.639 2.753-.521 2.352.525-.285.742-1.155 1.104-1.935.805-.779-.299-1.417-.06-1.417.532 0 .591-.787.822-1.75.512-1.053-.339-1.323-.227-.677.282.59.464 1.363 1.631 1.719 2.594.355.963 1.361 1.75 2.236 1.75.947 0 1.302.467.877 1.155-.409.66-.278.885.306.524.56-.347.895-1.764.743-3.15-.314-2.858 1.04-4.291 1.91-2.023.315.822.107 1.494-.463 1.494-.57 0-.799.787-.509 1.75.682 2.267-1.856 5.657-3.575 4.776-.725-.371-.53-.029.433.76 2.251 1.845 2.251 3.102 0 2.319-1.553-.541-1.542-.448.1.826 1.082.84 1.537 1.943 1.096 2.657-.489.79-.338.963.426.491.65-.401 1.116-1.258 1.036-1.904-.338-2.737.211-3.675 2.151-3.675 1.132 0 1.781-.45 1.441-1-.34-.55-.093-1 .548-1 .652 0 .899.697.559 1.582-.334.87-.607 1.756-.607 1.968 0 .213-.675.128-1.5-.188-1.581-.607-2.119 1.138-.634 2.055.476.294.659 1.618.406 2.942s.031 2.71.632 3.082c.651.402 1.03-.056.936-1.133-.303-3.491.17-5.42 1.176-4.798.559.346.75 1.06.424 1.587-.326.528-.767 2.339-.981 4.024-.296 2.346-.051 2.937 1.045 2.516.787-.302 1.698-.119 2.023.407.325.526-.111.956-.968.956s-1.559.45-1.559 1 .9 1 2 1c2.336 0 2.719 2.787.5 3.638-.825.317-1.5 1.454-1.5 2.528 0 1.165.444 1.678 1.1 1.272.795-.491.801-.122.021 1.336-.854 1.596-.718 2.299.65 3.371 1.595 1.25 1.613 1.205.229-.582-1.372-1.772-1.343-1.879.332-1.25 1.007.378 2.046.687 2.309.687.262 0 .16.513-.228 1.141-.513.831 1.306 1.012 6.691.666 5.984-.385 9.097-1.273 16.304-4.65 7.348-3.444 10.237-5.531 16.5-11.916 10.395-10.599 14.969-20.331 17.094-36.368 1.623-12.247.802-146.542-.937-153.373-3.703-14.543-13.757-29.135-25.361-36.807-6.778-4.481-17.487-8.278-27.133-9.62-9.449-1.314-139.107-1.251-148.334.072M18.129 19.367C15.287 22.299 15.09 22.82 16.6 23.4c.954.366 2.222.135 2.817-.514.812-.885.611-1.013-.801-.513-1.564.554-1.428.069.801-2.853 3.381-4.432 2.913-4.488-1.288-.153M18 29.383c0 .211.9.619 2 .907 1.1.287 2 .115 2-.384 0-.498-.9-.906-2-.906s-2 .173-2 .383m15 3.01c0 .216.698.661 1.552.989.89.341 1.291.173.941-.393-.587-.951-2.493-1.406-2.493-.596m15 8.977c0 2.453 1.253 3.884 3.73 4.26.677.103 1.946.903 2.821 1.779 1.949 1.948 2.095 1.956 2.791.142.372-.969.076-1.265-.893-.893-.888.341-1.449-.055-1.449-1.02 0-.985-.558-1.361-1.492-1.003-.897.345-1.771-.166-2.194-1.281-.386-1.02-1.29-2.449-2.008-3.175C48.227 39.087 48 39.294 48 41.37m1 1.571c0 .518.445 1.216.989 1.552.566.35.734-.051.393-.941C49.717 41.82 49 41.503 49 42.941m19 15.118c0 .582.45.781 1 .441s1-.816 1-1.059S69.55 57 69 57s-1 .477-1 1.059m79.531 14.31c13.371 13.589 21.272 30.926 22.214 48.741.389 7.352.119 10.783-1.15 14.605-1.98 5.96-7.246 14.568-8.63 14.107-1.365-.455-44.653-41.05-45.308-42.489-.292-.642 3.96-5.586 9.448-10.986 5.489-5.4 9.623-9.933 9.187-10.071-.436-.139-6.501-1.079-13.479-2.088l-12.687-1.836-16.303 16.326-16.304 16.325 7.491 7.482 7.49 7.481 7.796-7.483c4.288-4.116 8.141-7.483 8.563-7.483.422 0 10.077 9.637 21.455 21.416 14.212 14.711 20.504 21.896 20.099 22.951-.985 2.567-7.434 4.134-16.913 4.11-7.541-.02-9.899-.441-14.546-2.601-3.05-1.418-7.225-4.053-9.278-5.856-3.486-3.06-3.853-3.17-5.534-1.649-.99.896-2.725 1.629-3.856 1.629-3.593 0-7.296 2.625-10.23 7.251-3.224 5.083-7.708 8.789-13.556 11.204-7.893 3.258-12.5 9.522-12.5 16.995V195h3.935c8.297 0 12.606-3.214 17.626-13.145 2.181-4.316 4.994-7.997 8.024-10.5 2.566-2.12 6.012-5.111 7.657-6.645l2.992-2.79 4.131 4.091c12.287 12.164 31.917 16.224 49.828 10.304l8.123-2.684 10.167 10.684C183.114 194.437 183.862 195 187.67 195c5.065 0 7.33-2.322 7.33-7.513 0-3.589-.723-4.548-10.508-13.927l-10.508-10.072 2.676-3.938c1.471-2.166 3.763-7.338 5.091-11.494 9.072-28.375-7.195-64.755-35.763-79.982l-5.64-3.006 7.183 7.301m-62.875-2.824c.304.794.956 1.195 1.449.89 1.24-.766 1.126-1.132-.554-1.777-.967-.371-1.265-.076-.895.887M96 79.893c0 1.041.739 2.176 1.641 2.523 1.354.519 1.426.37.414-.849-.675-.814-.937-1.949-.582-2.523.355-.574.168-1.044-.414-1.044S96 78.852 96 79.893m24.872 22.857c-1.243 1.586-1.208 1.621.378.378 1.666-1.307 2.195-2.128 1.372-2.128-.207 0-.995.787-1.75 1.75m2.432 2.135c-.616.987-.824 2.237-.462 2.777 1.022 1.528 4.028 2.358 4.685 1.294.325-.526.975-.956 1.444-.956.949 0 .714 4.083-.333 5.776-.369.597-.21 1.37.353 1.718.563.348 1.292-.068 1.621-.925.329-.857 1.031-1.29 1.561-.962.53.327.731 1.202.446 1.943-.334.871 0 1.15.943.788.963-.37 1.278-.084.924.839-.305.793.88 2.683 2.733 4.361 1.799 1.629 2.943 2.556 2.542 2.061-.402-.496.051-1.542 1.005-2.324.953-.783 1.142-1.12.417-.749-.742.38-1.942-.132-2.752-1.176-1.378-1.775-1.41-1.769-.791.15.609 1.892.547 1.908-1.162.3-1.564-1.472-1.621-1.941-.425-3.5.76-.99.987-1.466.506-1.059-1.096.929-3.734-1.149-2.989-2.354.301-.488-.154-.887-1.011-.887-.883 0-1.559-.852-1.559-1.965 0-1.08-.906-2.45-2.014-3.043-1.118-.598-1.897-.658-1.75-.135.145.519-.175.876-.713.793-.537-.083-1.109-1.023-1.272-2.089-.406-2.66-.654-2.746-1.947-.676M132 120.378c0 .207.787.995 1.75 1.75 1.586 1.243 1.621 1.208.378-.378-1.307-1.666-2.128-2.195-2.128-1.372m5.405 5.48c2.038 2.292 2.595 2.588 2.595 1.383 0-.418-1.012-1.382-2.25-2.142-2.242-1.377-2.243-1.375-.345.759m4.192-.014c-.346.56-.142 1.319.453 1.687 1.538.95 2.53-.351 1.246-1.635-.718-.718-1.277-.735-1.699-.052M143.5 131c-.34.55-.141 1 .441 1s1.059-.45 1.059-1-.198-1-.441-1-.719.45-1.059 1m31 59c.995 1.1 2.035 2 2.31 2 .275 0-.315-.9-1.31-2-.995-1.1-2.035-2-2.31-2-.275 0 .315.9 1.31 2m5.5 7.878c0 .617.48 1.122 1.067 1.122.613 0 .797.853.433 2-.364 1.147-.18 2 .433 2 1.596 0 1.287-3.573-.433-5-1.036-.86-1.5-.898-1.5-.122m-3.187 2.805c.721.289 1.584.253 1.916-.079.332-.332-.258-.568-1.312-.525-1.165.048-1.402.285-.604.604M184 217.5c0 .917.484 1.505 1.075 1.308.591-.197 1.075-.786 1.075-1.308s-.484-1.111-1.075-1.308c-.591-.197-1.075.391-1.075 1.308m6.731 3.42c-.435 1.663-.305 2.054.437 1.312.582-.582.86-1.647.62-2.369-.25-.749-.703-.295-1.057 1.057m-3.073 3.529c-.371.967-.076 1.265.887.895.794-.304 1.195-.956.89-1.449-.766-1.24-1.132-1.126-1.777.554m.49 9.051c-.047 1.1.576 2.874 1.384 3.941 1.909 2.524 1.851 3.312-.282 3.87-1.567.409-1.554.469.122.573 1.561.097 1.663.369.609 1.639-1.057 1.273-.995 1.42.378.893 2.164-.831 2.099.504-.109 2.238-1.303 1.024-1.373 1.307-.274 1.11.91-.163 1.614.695 1.835 2.236.197 1.375.735 2.893 1.196 3.372.461.48.458-.812-.007-2.871-.963-4.271-.412-6.501 1.607-6.501.766 0 1.393-.45 1.393-1s-.685-1-1.521-1c-.837 0-2.066-1.238-2.73-2.75-.665-1.512-1.503-2.975-1.863-3.25-.36-.275-.879-1.4-1.154-2.5l-.5-2-.084 2m3.416 8.793c.376.986.935 1.541 1.243 1.233.308-.307.001-1.114-.683-1.793-.988-.98-1.102-.865-.56.56m15.186 10.369c.688.278 1.813.278 2.5 0 .688-.277.125-.504-1.25-.504s-1.937.227-1.25.504" fill="#d10a0a" fill-rule="evenodd"/></svg>